<svg width="17" height="15" viewBox="0 0 17 15" fill="none" xmlns="http://www.w3.org/2000/svg">
<path d="M17 7.48474C17 7.86444 16.7178 8.17823 16.3518 8.2279L16.25 8.23474L3.066 8.23414L7.82899 12.9777C8.12251 13.2699 8.12353 13.7448 7.83127 14.0383C7.56558 14.3052 7.14897 14.3303 6.85489 14.1131L6.77061 14.0406L0.720613 8.01661C0.681923 7.97809 0.648317 7.9364 0.619795 7.89237C0.611738 7.87911 0.603539 7.86555 0.595764 7.85172C0.588614 7.83987 0.582151 7.82756 0.576056 7.81511C0.567589 7.797 0.559317 7.77829 0.551805 7.7592C0.545702 7.74448 0.540607 7.73016 0.535959 7.71573C0.530434 7.69784 0.525064 7.67877 0.520447 7.65941C0.517014 7.6459 0.514294 7.63289 0.511923 7.61983C0.508587 7.6004 0.505749 7.58029 0.503723 7.55994C0.501974 7.54443 0.500921 7.52905 0.50034 7.51366C0.500189 7.50433 0.5 7.49456 0.5 7.48474L0.500376 7.45569C0.50095 7.44097 0.501955 7.42626 0.503393 7.41159L0.5 7.48474C0.5 7.43741 0.504383 7.39111 0.512768 7.34621C0.514711 7.33549 0.517029 7.32448 0.519594 7.31352C0.524921 7.29094 0.531078 7.2692 0.538168 7.24789C0.541647 7.2373 0.545702 7.22598 0.550034 7.21475C0.558798 7.19218 0.568325 7.17067 0.578804 7.14971C0.583673 7.13986 0.589125 7.12955 0.594835 7.11933C0.604208 7.10268 0.613863 7.08685 0.624073 7.07142C0.631277 7.0605 0.639254 7.04913 0.647583 7.03794L0.654074 7.0293C0.67428 7.0029 0.696201 6.97788 0.719669 6.95441L0.72057 6.95372L6.77057 0.928717C7.06407 0.636431 7.53894 0.637414 7.83123 0.930913C8.09694 1.19773 8.12029 1.61444 7.90182 1.9076L7.82903 1.99157L3.068 6.73414L16.25 6.73474C16.6642 6.73474 17 7.07053 17 7.48474Z" fill="#171725"/>
</svg>
