<svg width="99" height="79" viewBox="0 0 99 79" fill="none" xmlns="http://www.w3.org/2000/svg">
<path d="M95.3205 66.7217C95.3205 68.8011 94.4516 70.7953 92.9049 72.2656C91.3582 73.7359 89.2604 74.5619 87.073 74.5619H12.8455C10.6581 74.5619 8.56037 73.7359 7.01366 72.2656C5.46695 70.7953 4.59802 68.8011 4.59802 66.7217V23.6005C4.59802 21.5212 5.46695 19.527 7.01366 18.0567C8.56037 16.5863 10.6581 15.7603 12.8455 15.7603H29.3405L37.588 4H62.3305L70.578 15.7603H87.073C89.2604 15.7603 91.3582 16.5863 92.9049 18.0567C94.4516 19.527 95.3205 21.5212 95.3205 23.6005V66.7217Z" stroke="white" stroke-width="7.244" stroke-linecap="round" stroke-linejoin="round"/>
<path d="M49.9594 59.4418C58.3102 59.4418 65.0798 52.6721 65.0798 44.3213C65.0798 35.9706 58.3102 29.2009 49.9594 29.2009C41.6086 29.2009 34.839 35.9706 34.839 44.3213C34.839 52.6721 41.6086 59.4418 49.9594 59.4418Z" stroke="white" stroke-width="7.244" stroke-linecap="round" stroke-linejoin="round"/>
</svg>
