<svg width="20" height="20" viewBox="0 0 20 20" fill="none" xmlns="http://www.w3.org/2000/svg">
<path d="M19 10C19 14.9706 14.9706 19 10 19C8.22894 19 6.57736 18.4884 5.18497 17.605L1 19L2.39499 14.815C1.51156 13.4226 1 11.7711 1 10C1 5.02944 5.02944 1 10 1C14.9706 1 19 5.02944 19 10Z" stroke="#9CA4AB" stroke-width="2" stroke-linecap="round" stroke-linejoin="round"/>
<path d="M11.5 10C11.5 10.8284 10.8284 11.5 10 11.5C9.17157 11.5 8.5 10.8284 8.5 10C8.5 9.17157 9.17157 8.5 10 8.5C10.8284 8.5 11.5 9.17157 11.5 10Z" fill="#9CA4AB"/>
<path d="M16 10C16 10.8284 15.3284 11.5 14.5 11.5C13.6716 11.5 13 10.8284 13 10C13 9.17157 13.6716 8.5 14.5 8.5C15.3284 8.5 16 9.17157 16 10Z" fill="#9CA4AB"/>
<path d="M7 10C7 10.8284 6.32843 11.5 5.5 11.5C4.67157 11.5 4 10.8284 4 10C4 9.17157 4.67157 8.5 5.5 8.5C6.32843 8.5 7 9.17157 7 10Z" fill="#9CA4AB"/>
</svg>
