<svg width="24" height="27" viewBox="0 0 24 27" fill="none" xmlns="http://www.w3.org/2000/svg">
<path d="M21.75 11.4546L21.75 10.7046L20.25 10.7046L20.25 11.4546L21.75 11.4546ZM20.25 16.4546C20.25 16.8688 20.5858 17.2046 21 17.2046C21.4142 17.2046 21.75 16.8688 21.75 16.4546L20.25 16.4546ZM20.25 11.4546L20.25 16.4546L21.75 16.4546L21.75 11.4546L20.25 11.4546Z" fill="#3498DB"/>
<path d="M6 12.4546V19.7252V19.7252C9.43862 22.7222 14.5614 22.7222 18 19.7252V19.7252V12.4546" stroke="#3498DB" stroke-width="1.5"/>
<path d="M9.61203 7.44567C11.1119 6.67964 12.8881 6.67964 14.388 7.44567L21.3553 11.0042L14.388 14.5627C12.8881 15.3287 11.1119 15.3287 9.61203 14.5627L2.6447 11.0042L9.61203 7.44567Z" stroke="#3498DB" stroke-width="1.5"/>
</svg>
