<svg xmlns="http://www.w3.org/2000/svg" viewBox="0 0 86 69.29"><title>ohFINQ.tif</title><path d="M0 34.62V3.31 1.68C.12-.07.64-.4 2.15.45c4.44 2.5 9 4.87 13.36 7.45 4.91 2.88 10 5.48 15 8.25 6.3 3.52 12.57 7.09 18.87 10.63.94.53 1.91 1 2.86 1.54s1.62.36 1.61-.95c0-3 .06-6 0-9a2.78 2.78 0 0 1 1.64-2.88c2-1 3.94-2.08 5.93-3.06 1.48-.73 2.18-.33 2.21 1.32.06 3.1 0 6.2 0 9.3v17.28c0 3-.64 3.41-3.2 2C53 38.21 45.65 34 38.28 29.91q-8.52-4.78-17.06-9.52c-1.81-1-2.29-.76-2.29 1.33 0 11.47-.07 22.94.05 34.4 0 2.59-.45 4.27-3 5.49-4.61 2.16-9 4.79-13.5 7.17-1.9.98-2.48.59-2.48-1.55V34.62z" fill="#fff"/><path d="M85.83 31.46v28.2c0 2.6.1 5.19.15 7.79a1.72 1.72 0 0 1-.54 1.63c-.41.29-.81 0-1.2-.2L57 53.62Q45.76 47.34 34.56 41c-.24-.13-.5-.22-.73-.36-1.29-.82-1.58-.2-1.57 1v8.8a3.19 3.19 0 0 1-2.07 3.31c-2 .92-3.85 2-5.77 3-1.05.57-1.55.15-1.61-.93s0-1.95 0-2.93V28.28c0-.74-.27-1.64.47-2.12s1.4.24 2 .59L56.22 44c3.18 1.77 6.36 3.52 9.5 5.35 1.2.71 1.54.35 1.49-.88-.22-6.35.27-12.69.17-19s0-12.49.09-18.73a2 2 0 0 1 1.26-1.9C73.94 6 79.14 3.19 84.36.41c1.41-.75 1.42.31 1.42 1.22V31.46z" fill="#fff"/></svg>