<svg width="340" height="340" viewBox="0 0 340 340" fill="none" xmlns="http://www.w3.org/2000/svg">
<g clip-path="url(#clip0_190_1630)">
<path d="M246.684 137.881C226.55 113.515 184.271 50.286 130.061 75.5622C75.8511 100.838 15.2178 251.382 133.92 251.555C178.514 251.62 242.737 257.442 261.553 240.408C292.825 212.098 259.25 153.096 246.684 137.881Z" fill="#9CA4AB"/>
<path d="M96.8036 229.636C91.2333 229.636 86.7 224.627 86.7 218.47V60.9705C86.7 54.8108 91.2333 49.8015 96.8008 49.8015H243.196C248.767 49.8015 253.297 54.8108 253.297 60.9705V218.47C253.297 224.627 248.764 229.636 243.196 229.636H96.8036Z" fill="#3498DB"/>
<path d="M243.196 53.3177H96.8037C93.1742 53.3177 90.219 56.7517 90.219 60.9677V218.47C90.219 222.686 93.1742 226.12 96.8037 226.12H243.196C246.829 226.12 249.781 222.686 249.781 218.47V60.9705C249.781 56.7517 246.829 53.3177 243.196 53.3177Z" fill="white"/>
<path d="M234.405 200.963C235.547 195.158 234.943 189.146 232.668 183.685C230.393 178.224 226.551 173.561 221.626 170.284C216.701 167.007 210.915 165.264 204.999 165.275C199.083 165.286 193.304 167.051 188.392 170.347C183.479 173.643 179.654 178.321 177.4 183.79C175.147 189.26 174.565 195.275 175.73 201.075C176.894 206.874 179.752 212.199 183.943 216.374C188.133 220.55 193.467 223.389 199.271 224.533C203.126 225.293 207.092 225.287 210.944 224.513C214.797 223.74 218.458 222.216 221.721 220.027C224.984 217.838 227.783 215.028 229.959 211.757C232.136 208.485 233.646 204.818 234.405 200.963ZM180.787 190.4C181.731 185.6 184.078 181.188 187.53 177.721C190.982 174.255 195.384 171.89 200.181 170.925C204.977 169.961 209.951 170.441 214.475 172.303C218.998 174.166 222.868 177.329 225.594 181.391C228.321 185.453 229.781 190.232 229.791 195.124C229.801 200.017 228.36 204.802 225.651 208.875C222.941 212.948 219.084 216.127 214.568 218.008C210.052 219.889 205.08 220.389 200.28 219.445C193.844 218.177 188.175 214.405 184.519 208.959C180.864 203.512 179.521 196.836 180.787 190.4Z" fill="#1F1F39"/>
<path d="M184.733 285.501L196.633 224.018C196.702 223.668 196.839 223.336 197.036 223.04C197.233 222.743 197.486 222.489 197.782 222.29C198.077 222.092 198.409 221.954 198.758 221.884C199.107 221.813 199.466 221.813 199.815 221.881C200.164 221.95 200.497 222.087 200.793 222.284C201.089 222.481 201.344 222.734 201.542 223.03C201.741 223.325 201.879 223.657 201.949 224.006C202.019 224.355 202.02 224.714 201.952 225.063L190.052 286.546C189.985 286.898 189.85 287.232 189.654 287.531C189.457 287.83 189.204 288.087 188.908 288.287C188.612 288.487 188.279 288.627 187.929 288.698C187.579 288.769 187.218 288.77 186.867 288.701C186.516 288.632 186.183 288.495 185.886 288.296C185.588 288.098 185.333 287.842 185.135 287.545C184.937 287.247 184.8 286.914 184.731 286.563C184.663 286.212 184.665 285.851 184.736 285.501H184.733Z" fill="#1F1F39"/>
<path d="M241.224 167.467C239.405 169.518 231.9 176.587 230.545 177.418C229.191 178.248 218.458 174.018 207.763 170.646C203.694 169.578 200.294 167.546 202.682 165.163C205.071 162.781 207.457 164.568 209.667 166.6C209.525 166.671 225.227 170.618 226.95 170.048C227.874 169.419 231.954 164.149 232.696 163.56" fill="white"/>
<path d="M237.802 171.19C235.175 173.661 231.529 176.814 230.545 177.423C229.194 178.253 215.656 173.669 207.763 170.652C203.694 169.583 200.294 167.552 202.682 165.169C205.071 162.786 206.949 164.486 209.667 166.6C209.525 166.671 225.227 170.618 226.95 170.048C227.874 169.419 231.716 164.948 231.716 164.948" stroke="#1F1F39" stroke-width="3" stroke-linecap="round" stroke-linejoin="round"/>
<path d="M243.565 162.477C242.913 167.628 240.1 169.277 239.216 170.524C236.382 168.359 235.175 165.141 231.959 163.622C232.841 159.009 234.923 153.246 237.201 152.484C239.479 151.722 244.389 154.306 243.565 162.477Z" fill="#9DD5C0"/>
<path d="M247.976 272.524C248.087 274.428 248.186 278.817 248.217 279.37C248.265 280.2 249.376 288.53 248.642 288.756C247.908 288.983 225.845 289.368 228.559 287.462C231.274 285.555 240.394 281.211 240.298 279.528L239.714 271.878L247.976 272.524Z" fill="white"/>
<path d="M248.002 275.683L248.217 279.367C248.265 280.197 249.376 288.527 248.642 288.754C247.908 288.98 225.845 289.366 228.559 287.459C231.274 285.552 240.394 281.208 240.298 279.525L240.015 276.947" stroke="#1F1F39" stroke-width="3" stroke-linecap="round" stroke-linejoin="round"/>
<path d="M221.411 273.983C221.164 278.134 220.668 283.812 220.844 285.016C221.076 286.733 221.193 288.463 221.193 290.196L201.135 289.657C200.992 289.64 200.862 289.566 200.773 289.452C200.685 289.338 200.645 289.194 200.662 289.051C200.672 288.968 200.701 288.888 200.748 288.818C200.794 288.748 200.856 288.69 200.929 288.649C209.74 283.549 213.548 280.214 213.548 279.364L214.361 271.98" fill="white"/>
<path d="M221.496 276.128C221.247 280.279 221.179 288.141 221.213 290.198L201.155 289.66C201.012 289.642 200.882 289.569 200.793 289.455C200.705 289.341 200.665 289.197 200.682 289.054C200.692 288.971 200.721 288.891 200.767 288.821C200.814 288.751 200.876 288.693 200.949 288.652C209.76 283.552 213.568 280.152 213.568 279.302L213.798 277.143" stroke="#1F1F39" stroke-width="3" stroke-linecap="round" stroke-linejoin="round"/>
<path d="M220.399 132.464L218.699 135.943C218.042 138.102 217.566 140.984 218.592 142.216C219.617 143.449 221.377 143.664 222.969 144.401L222.686 150.634C220.436 150.784 219.345 150.985 218.376 151.705C220.232 153.184 222.938 154.652 226.905 154.043C230.871 153.433 232.591 150.926 232.591 150.926L228.157 150.144V144.035C229.857 143.01 230.228 142.16 230.339 140.199L230.075 137.963L222.573 132.484L220.399 132.464Z" fill="white"/>
<path d="M230.265 150.549C229.568 150.396 228.171 150.124 228.171 150.124V144.016C228.171 144.016 230.279 142.14 230.353 140.378" stroke="#1F1F39" stroke-width="3" stroke-linecap="round" stroke-linejoin="round"/>
<path d="M218.985 135.595C217.903 137.32 217.965 139.077 218.575 140.754C219.184 142.432 222.983 144.401 222.983 144.401L222.7 150.634C222.272 150.625 221.844 150.65 221.419 150.708" stroke="#1F1F39" stroke-width="3" stroke-linecap="round" stroke-linejoin="round"/>
<path d="M212.5 191.669C211.994 218.728 211.479 245.786 210.956 272.844C213.727 273.513 217.999 274.349 220.45 274.499C222.901 274.649 223.411 274.476 225.239 273.615C225.692 251.852 226.222 230.098 226.698 208.338C227.536 208.414 228.379 208.414 229.217 208.338C230.063 208.202 230.896 207.994 231.707 207.714C233.163 229.476 234.614 251.24 236.059 273.006C238.397 273.493 241.304 274.082 243.539 274.21C245.775 274.337 247.237 274.04 249.291 273.72C246.998 246.907 244.722 220.096 242.462 193.287L212.5 191.669Z" fill="#1F1F39"/>
<path d="M230.633 139.043C228.663 139.752 226.54 139.93 224.479 139.559C221.992 138.658 222.422 135.7 222.377 133.594C220.856 131.775 219.243 134.748 218.453 131.231C217.427 126.639 221.213 124.675 226.267 125.162C227.862 125.315 229.084 126.216 229.336 127.996C230.497 128.211 231.509 128.506 232.01 129.636C232.727 132.674 231.789 136.221 230.633 139.043Z" fill="#1F1F39"/>
<path d="M210.953 195.99C210.953 195.99 219.804 198.54 226.009 198.518C232.214 198.495 237.759 197.044 243.797 195.225C244.08 190.596 244.33 165.115 243.327 155.995C243.086 153.81 240.445 152.714 238.366 151.997C236.286 151.28 233.725 150.541 232.025 150.552C230.217 152.649 226.358 152.742 225.185 152.742C224.012 152.742 221.326 152.36 220.164 150.838C218.355 151.286 216.574 151.843 214.832 152.504C213.019 153.213 213.211 162.497 212.509 164.356C212.633 170.173 210.953 195.99 210.953 195.99Z" fill="#3498DB"/>
<path d="M221.666 134.238L220.133 134.051L221.666 134.238Z" stroke="#1D252E" stroke-width="3" stroke-linecap="round" stroke-linejoin="round"/>
<path d="M221.703 135.484L220.17 135.297L221.703 135.484Z" stroke="#1D252E" stroke-width="3" stroke-linecap="round" stroke-linejoin="round"/>
<path d="M208.916 153.85C208.089 151.235 206.151 142.981 206.485 141.426C206.819 139.87 213.67 135.192 224.281 131.546C228.191 129.988 232.132 129.602 231.628 132.937C231.124 136.272 228.14 136.252 225.142 135.935C225.216 135.793 215.064 142.282 214.288 143.919C214.104 145.021 216.515 147.603 216.64 148.546" fill="white"/>
<path d="M207.479 148.996C206.709 145.475 206.241 142.548 206.485 141.42C206.819 139.867 216.141 133.804 224.281 131.54C228.191 129.982 232.132 129.597 231.628 132.931C231.124 136.266 228.596 136.014 225.142 135.929C225.216 135.787 215.064 142.276 214.288 143.913C214.104 145.016 215.954 146.985 215.954 146.985" stroke="#1F1F39" stroke-width="3" stroke-linecap="round" stroke-linejoin="round"/>
<path d="M217.705 148.112C215.687 147.702 207.862 149.864 207.323 150.793C206.785 151.722 211.12 161.5 211.879 163.2C214.429 168.736 220.422 155.904 220.164 150.835C220.164 150.838 219.719 148.526 217.705 148.112Z" fill="#3498DB"/>
<path d="M211.749 159.956L213.953 164.685C213.953 164.685 213.324 164.211 213.166 167.679" stroke="#1F1F39" stroke-width="3" stroke-linecap="round" stroke-linejoin="round"/>
<path d="M219.269 151.209C219.657 151.697 220.776 152.909 222.21 153.054" stroke="#1D252E" stroke-width="3" stroke-linecap="round" stroke-linejoin="round"/>
<path d="M206.734 103.003H130.617C130.368 103.003 130.129 102.904 129.954 102.728C129.778 102.552 129.679 102.314 129.679 102.065C129.679 101.816 129.778 101.578 129.954 101.402C130.129 101.226 130.368 101.127 130.617 101.127H206.748C206.997 101.127 207.236 101.226 207.411 101.402C207.587 101.578 207.686 101.816 207.686 102.065C207.686 102.314 207.587 102.552 207.411 102.728C207.236 102.904 206.997 103.003 206.748 103.003H206.734Z" fill="#9CA4AB"/>
<path d="M200.668 111.183H136.666C136.417 111.183 136.179 111.084 136.003 110.908C135.827 110.732 135.728 110.494 135.728 110.245C135.728 109.996 135.827 109.758 136.003 109.582C136.179 109.406 136.417 109.307 136.666 109.307H200.668C200.917 109.307 201.155 109.406 201.331 109.582C201.507 109.758 201.606 109.996 201.606 110.245C201.606 110.494 201.507 110.732 201.331 110.908C201.155 111.084 200.917 111.183 200.668 111.183Z" fill="#9CA4AB"/>
<path d="M183.135 91.3807H154.201C153.841 91.3807 153.55 91.6724 153.55 92.0323V95.0187C153.55 95.3786 153.841 95.6703 154.201 95.6703H183.135C183.495 95.6703 183.787 95.3786 183.787 95.0187V92.0323C183.787 91.6724 183.495 91.3807 183.135 91.3807Z" fill="#9CA4AB"/>
</g>
<defs>
<clipPath id="clip0_190_1630">
<rect width="340" height="340" fill="white"/>
</clipPath>
</defs>
</svg>
