<svg width="336" height="326" viewBox="0 0 336 326" fill="none" xmlns="http://www.w3.org/2000/svg">
<g clip-path="url(#clip0_140_731)">
<path d="M138.54 244.6C138.54 244.6 207.008 233.591 278.536 143.689C350.054 53.7868 272.176 10.02 272.176 10.02C272.176 10.02 233.635 -15.442 196.29 14.7914C158.945 45.0248 195.892 62.1324 164.508 93.5543C133.116 124.985 96.9667 68.0924 54.449 110.662C11.9313 153.232 39.0865 259.573 138.549 244.591L138.54 244.6Z" fill="#EAF2FF"/>
<path d="M168 325.991C260.784 325.991 336 321.595 336 316.171C336 310.747 260.784 306.35 168 306.35C75.2162 306.35 0 310.747 0 316.171C0 321.595 75.2162 325.991 168 325.991Z" fill="#F5F5F5"/>
<path d="M182.687 66.8865V78.2945C182.687 79.9601 181.326 81.3221 179.663 81.3221H151.832C150.168 81.3221 148.808 79.9601 148.808 78.2945V37.0348C148.808 35.3691 150.168 34.0071 151.832 34.0071H179.663C181.326 34.0071 182.687 35.3691 182.687 37.0348V55.0187" fill="white"/>
<path d="M179.663 81.7819H151.832C149.917 81.7819 148.348 80.2204 148.348 78.2945V37.0348C148.348 35.1089 149.908 33.5473 151.832 33.5473H179.663C181.578 33.5473 183.146 35.1089 183.146 37.0348V55.0187H182.236V37.0348C182.236 35.6207 181.084 34.4582 179.671 34.4582H151.84C150.428 34.4582 149.276 35.6121 149.276 37.0348V78.3032C149.276 79.7172 150.428 80.871 151.84 80.871H179.671C181.084 80.871 182.236 79.7172 182.236 78.3032V66.8951H183.146V78.3032C183.146 80.2204 181.586 81.7906 179.663 81.7906V81.7819Z" fill="#3498DB"/>
<path d="M163.642 75.6312C164.214 75.2841 164.803 74.9458 165.418 74.6769C165.713 74.5468 166.016 74.434 166.319 74.3385C166.622 74.2431 167.012 74.087 167.333 74.113C167.211 74.0436 167.099 73.9742 166.978 73.9135C166.917 73.818 166.891 74.0609 166.865 74.1217C166.83 74.2258 166.787 74.3212 166.744 74.4253C166.657 74.6422 166.553 74.8677 166.518 75.1106C166.466 75.4924 166.683 75.7873 167.082 75.7786C168.017 75.7613 168.823 75.128 169.629 74.781C169.525 74.7983 169.421 74.807 169.308 74.8244C169.395 74.8504 169.508 74.9545 169.603 74.9892C169.742 75.0412 169.898 75.0673 170.045 75.0759C170.383 75.102 170.721 75.0239 171.059 75.0499C171.587 75.102 171.579 74.2778 171.059 74.2258C170.703 74.1911 170.331 74.3038 169.984 74.2344C169.655 74.1737 169.534 73.9135 169.17 74.0783C168.823 74.2344 168.511 74.46 168.156 74.6075C167.991 74.6769 167.818 74.7376 167.645 74.7897C167.541 74.8244 167.428 74.8504 167.324 74.8851C167.229 74.9111 167.056 74.8851 167.194 75.0152C167.237 75.1106 167.272 75.2061 167.315 75.3102C167.289 74.755 167.905 74.2344 167.749 73.6619C167.584 73.0806 166.865 73.3409 166.466 73.445C165.305 73.7486 164.231 74.3125 163.208 74.9371C162.758 75.2147 163.174 75.9261 163.624 75.6485L163.642 75.6312Z" fill="#E0E0E0"/>
<path d="M179.455 40.1753H152.031V41.0862H179.455V40.1753Z" fill="#E0E0E0"/>
<path d="M176.353 46.6383H152.031V47.5492H176.353V46.6383Z" fill="#E0E0E0"/>
<path d="M179.455 53.1101H152.031V54.021H179.455V53.1101Z" fill="#E0E0E0"/>
<path d="M159.569 59.5732H152.031V60.4841H159.569V59.5732Z" fill="#E0E0E0"/>
<path d="M172.757 59.5732H162.732V60.4841H172.757V59.5732Z" fill="#E0E0E0"/>
<path d="M179.455 66.045H152.031V66.9559H179.455V66.045Z" fill="#E0E0E0"/>
<path d="M155.8 77.6005C153.469 77.6005 151.58 75.7006 151.58 73.3669C151.58 71.0333 153.478 69.142 155.8 69.142C158.122 69.142 160.02 71.0419 160.02 73.3669C160.02 75.6919 158.122 77.6005 155.8 77.6005ZM155.8 70.053C153.972 70.053 152.49 71.5364 152.49 73.3669C152.49 75.1974 153.972 76.6809 155.8 76.6809C157.628 76.6809 159.11 75.1974 159.11 73.3669C159.11 71.5364 157.628 70.053 155.8 70.053Z" fill="#3498DB"/>
<path d="M158.296 73.3669C158.296 74.7463 157.178 75.8654 155.8 75.8654C154.422 75.8654 153.305 74.7463 153.305 73.3669C153.305 71.9875 154.422 70.8684 155.8 70.8684C157.178 70.8684 158.296 71.9875 158.296 73.3669Z" fill="#3498DB"/>
<path d="M172.402 72.6208C172.549 71.3022 173.034 70.2525 173.632 69.2982C174.247 68.3526 175.01 67.5198 175.703 66.6349C177.098 64.8738 178.545 63.1561 180.001 61.4384C182.929 58.029 185.91 54.6543 189.151 51.4878C189.333 51.3143 189.627 51.3143 189.8 51.4878C189.948 51.644 189.974 51.8695 189.861 52.043C187.522 55.9209 184.914 59.5905 182.262 63.2255C180.919 65.03 179.576 66.8344 178.19 68.5955C177.488 69.4717 176.847 70.4 176.076 71.2154C175.278 72.0222 174.369 72.7336 173.121 73.176C172.844 73.2715 172.532 73.1327 172.436 72.8464C172.41 72.7683 172.402 72.6816 172.41 72.6035L172.402 72.6208Z" fill="#3498DB"/>
<path d="M174.636 103.347L168.942 108.319L169.54 109.005L175.234 104.033L174.636 103.347Z" fill="#3498DB"/>
<path d="M167.865 95.6413L165.457 106.401L166.345 106.6L168.753 95.8405L167.865 95.6413Z" fill="#3498DB"/>
<path d="M159.381 103.883L158.717 104.506L161.886 107.894L162.55 107.271L159.381 103.883Z" fill="#3498DB"/>
<path d="M226.097 309.274H218.732L217.822 292.192H225.196L226.097 309.274Z" fill="#D8A3A3"/>
<path d="M263.277 309.274H255.903L253.018 292.192H260.383L263.277 309.274Z" fill="#D8A3A3"/>
<path d="M255.418 308.424H263.702C264.005 308.424 264.256 308.632 264.308 308.927L265.452 315.486C265.573 316.162 265.01 316.813 264.308 316.796C261.423 316.743 260.028 316.579 256.38 316.579C254.136 316.579 248.097 316.813 245.003 316.813C241.91 316.813 241.65 313.75 242.932 313.473C248.668 312.232 252.308 310.515 254.205 308.875C254.543 308.58 254.985 308.424 255.427 308.424H255.418Z" fill="#263238"/>
<path d="M218.541 308.424H226.591C226.894 308.424 227.145 308.632 227.197 308.927L228.341 315.486C228.462 316.162 227.916 316.813 227.215 316.796C224.312 316.743 220.127 316.579 216.479 316.579C212.216 316.579 211.133 316.813 206.125 316.813C203.101 316.813 202.408 313.75 203.681 313.473C209.504 312.206 211.609 312.076 216.739 308.996C217.294 308.658 217.909 308.424 218.541 308.424Z" fill="#263238"/>
<path d="M218.316 79.483L208.248 76.5421C208.248 76.5421 197.989 100.946 194.514 102.533C189.792 104.702 177.176 111.365 171.847 114.505C171.483 115.702 171.475 119.008 172.055 119.971C180.798 119.268 198.734 113.334 202.182 110.02C210.05 102.473 218.316 79.483 218.316 79.483Z" fill="#D8A3A3"/>
<path d="M221.366 74.8851C224.225 81.2701 204.6 109.265 204.6 109.265L195.051 99.3581C195.051 99.3581 203.482 78.173 208.04 70.0356C212.719 61.6813 218.229 67.8755 221.366 74.8764V74.8851Z" fill="#407BFF"/>
<path d="M221.366 74.8851C224.225 81.2701 204.6 109.265 204.6 109.265L195.051 99.3581C195.051 99.3581 203.482 78.173 208.04 70.0356C212.719 61.6813 218.229 67.8755 221.366 74.8764V74.8851Z" fill="#5F97D8"/>
<path d="M194.358 98.4906C193.76 98.8462 192.486 101.18 192.192 102.334C191.906 103.488 198.621 112.466 201.22 112.102C203.82 111.738 206.809 109.196 207.346 107.825C207.884 106.454 195.623 97.7445 194.358 98.4819V98.4906Z" fill="#3965A1"/>
<path d="M172.965 113.959L166.856 112.857L167.22 121.567C167.22 121.567 169.352 122.426 173.944 119.58L172.965 113.959Z" fill="#D8A3A3"/>
<path d="M159.569 115.746L160.678 121.072L167.22 121.567L166.856 112.857L159.569 115.746Z" fill="#D8A3A3"/>
<path opacity="0.2" d="M217.831 292.192L218.29 301.007H225.664L225.204 292.192H217.831Z" fill="black"/>
<path opacity="0.2" d="M260.392 292.192H253.018L254.508 301.007H261.882L260.392 292.192Z" fill="black"/>
<path d="M211.999 66.1664C211.999 66.1664 202.165 91.5243 208.455 133.018H247.871C248.434 126.963 246.112 94.3351 253.304 65.7847C253.304 65.7847 246.615 64.4314 240.186 64.1191C235.16 63.8762 227.873 63.7113 223.428 64.1191C217.562 64.6483 211.991 66.1664 211.991 66.1664H211.999Z" fill="#407BFF"/>
<path d="M211.999 66.1664C211.999 66.1664 202.165 91.5243 208.455 133.018H247.871C248.434 126.963 246.112 94.3351 253.304 65.7847C253.304 65.7847 246.615 64.4314 240.186 64.1191C235.16 63.8762 227.873 63.7113 223.428 64.1191C217.562 64.6483 211.991 66.1664 211.991 66.1664H211.999Z" fill="#3965A1"/>
<path opacity="0.2" d="M244.405 72.8377C243.522 77.5311 244.466 88.7742 248.322 101.761C248.816 91.7672 249.968 80.177 252.628 68.6302V68.5782C250.046 68.3092 245.254 68.4394 244.414 72.8464L244.405 72.8377Z" fill="black"/>
<path d="M238.747 48.4341C237.43 53.8302 236.59 60.5188 240.186 64.1277C240.186 64.1277 237.76 69.6019 227.743 69.6019C218.585 69.6019 223.437 64.1277 223.437 64.1277C229.519 62.6876 229.563 55.2442 228.714 51.0541L238.756 48.4428L238.747 48.4341Z" fill="#E9AFAC"/>
<path d="M227.752 69.5932C233.652 71.441 234.831 73.3409 234.831 73.3409C234.831 73.3409 242.179 70.3479 241.901 63.8588C241.901 63.8588 240.576 62.8438 239.025 62.1931C239.025 62.1931 238.435 66.9993 227.752 69.5932Z" fill="#3498DB"/>
<path d="M227.752 69.5932C224.442 69.9055 221.652 72.7423 221.652 72.7423C221.652 72.7423 219.555 70.5301 221.565 64.1104C221.565 64.1104 223.541 63.4337 225.161 63.0867C225.161 63.0867 223.861 68.1964 227.752 69.5845V69.5932Z" fill="#3498DB"/>
<path opacity="0.2" d="M228.696 51.0454C229.199 53.5005 229.398 57.0747 228.237 59.9115C229.129 59.7814 230.048 59.5125 230.958 59.0874C234.424 57.4825 236.217 54.9666 238.132 51.2363C238.305 50.282 238.513 49.345 238.739 48.4341L228.696 51.0541V51.0454Z" fill="black"/>
<path d="M227.535 31.1877C225.178 31.9598 219.91 36.4796 224.901 38.7699C229.892 41.0602 231.642 29.843 227.535 31.1877Z" fill="#263238"/>
<path d="M243.435 41.8496C241.139 48.9286 240.151 53.1708 235.637 56.0684C228.852 60.432 221.011 55.2442 221.193 47.7227C221.357 40.9473 225.083 30.511 232.717 29.1663C240.238 27.839 245.74 34.7705 243.444 41.8409L243.435 41.8496Z" fill="#E9AFAC"/>
<path d="M232.361 34.0765C228.462 34.7359 225.213 34.5363 224.035 31.2918C222.856 28.0472 228.22 24.6465 231.919 26.1733C234.658 23.3365 242.101 25.514 243.062 28.2554C247.421 27.9778 251.493 32.9661 248.556 35.534C250.783 36.8266 252.325 40.8086 249.44 43.6107C250.705 47.3758 246.147 51.1322 242.551 49.6053C239.007 48.5382 237.075 49.4144 236.581 47.1155C236.122 44.964 237.335 42.613 240.35 42.1706C238.825 40.3488 238.453 37.4686 239.518 36.228C235.819 37.885 232.829 35.8029 232.37 34.0765H232.361Z" fill="#263238"/>
<path d="M227.682 49.3364C230.005 49.5185 231.46 48.1652 231.521 48.1045C231.59 48.0351 231.599 47.931 231.53 47.8616C231.46 47.7922 231.356 47.7922 231.287 47.8616C231.27 47.8789 229.623 49.4144 227.076 48.9026C226.981 48.8852 226.885 48.946 226.868 49.0414C226.851 49.1368 226.903 49.2236 226.998 49.2496C227.232 49.293 227.457 49.3277 227.682 49.345V49.3364Z" fill="#263238"/>
<path d="M243.842 51.6006C242.257 52.8585 240.272 53.2923 238.669 53.1101C236.252 52.8412 236.07 50.4555 237.586 48.6424C238.955 47.0114 241.867 45.1983 243.877 46.3781C245.861 47.5406 245.644 50.1692 243.833 51.6006H243.842Z" fill="#E69892"/>
<path d="M234.354 133.018C234.354 133.018 233.358 142.292 232.067 154.871C230.602 169.125 228.774 187.62 227.613 201.718C227.613 201.787 227.605 201.848 227.596 201.909C227.371 204.589 227.171 207.097 227.007 209.387C225.36 232.376 228.298 299.289 228.298 299.289H215.812C215.812 299.289 204.314 231.006 204.591 207.6C204.86 185.105 208.429 133.001 208.429 133.001H234.337L234.354 133.018Z" fill="#3498DB"/>
<path d="M229.346 294.405C229.407 294.405 229.129 299.549 229.129 299.549H214.737L214.373 293.901L229.346 294.405Z" fill="#263238"/>
<path opacity="0.2" d="M232.075 154.871C230.611 169.125 228.783 187.62 227.622 201.718C227.622 201.787 227.613 201.848 227.604 201.909C224.858 188.549 224.009 171.918 225.074 144.548L232.075 154.871Z" fill="black"/>
<path d="M222.432 133.018C222.432 133.018 228.176 186.337 231.764 207.461C235.689 230.598 251.155 299.297 251.155 299.297H264.655C264.655 299.297 255.557 232.463 253.781 209.56C251.848 184.697 247.871 133.018 247.871 133.018H222.44H222.432Z" fill="#3498DB"/>
<path d="M264.845 294.717C264.906 294.717 265.313 299.558 265.313 299.558H250.479L249.396 294.162L264.845 294.717Z" fill="#263238"/>
<path d="M231.192 41.5199C231.036 42.1012 230.611 42.5089 230.239 42.4309C229.866 42.3528 229.684 41.8062 229.831 41.225C229.987 40.6437 230.412 40.236 230.784 40.3141C231.157 40.3922 231.339 40.9387 231.192 41.5199Z" fill="#263238"/>
<path d="M224.71 40.0972C224.555 40.6784 224.13 41.0862 223.757 41.0081C223.385 40.93 223.203 40.3835 223.35 39.8022C223.506 39.221 223.931 38.8132 224.303 38.8913C224.676 38.9694 224.858 39.5159 224.71 40.0972Z" fill="#263238"/>
<path d="M227.734 40.8433C227.734 40.8433 225.56 43.923 223.697 45.2416C224.459 46.4301 226.296 46.3607 226.296 46.3607L227.726 40.8433H227.734Z" fill="#E69892"/>
<path d="M234.736 39.8196C234.632 39.7935 234.545 39.7241 234.502 39.6287C233.912 38.2146 232.656 38.0151 232.639 38.0151C232.457 37.9978 232.327 37.8069 232.361 37.6161C232.396 37.4252 232.578 37.2951 232.769 37.3211C232.838 37.3298 234.415 37.5727 235.143 39.3338C235.212 39.5073 235.134 39.7155 234.952 39.8022C234.883 39.8369 234.805 39.8456 234.727 39.8282L234.736 39.8196Z" fill="#263238"/>
<path d="M223.445 37.1216C223.393 37.1042 223.35 37.0869 223.315 37.0435C223.177 36.9134 223.177 36.6965 223.315 36.549C224.658 35.1002 226.244 35.3258 226.305 35.3345C226.487 35.3518 226.617 35.5427 226.582 35.7335C226.547 35.9244 226.365 36.0545 226.175 36.0285C226.123 36.0285 224.892 35.8636 223.809 37.0175C223.714 37.1216 223.575 37.1563 223.454 37.1216H223.445Z" fill="#263238"/>
<path d="M257.671 75.8654L248.356 81.5043C248.356 81.5043 258.78 104.069 258.693 107.851C258.52 114.93 261.57 130.277 260.747 138.362C261.891 138.77 265.105 138.865 266.076 138.301C267.93 130.988 270.477 111.772 269.741 106.958C268.138 96.5126 257.671 75.8654 257.671 75.8654Z" fill="#D8A3A3"/>
<path d="M253.304 65.7847C260.227 66.7997 270.114 102.021 270.114 102.021L257.281 106.862C257.281 106.862 246.112 87.7592 243.34 79.2141C240.437 70.2612 245.87 64.683 253.295 65.776L253.304 65.7847Z" fill="#407BFF"/>
<path d="M253.304 65.7847C260.227 66.7997 270.114 102.021 270.114 102.021L257.281 106.862C257.281 106.862 246.112 87.7592 243.34 79.2141C240.437 70.2612 245.87 64.683 253.295 65.776L253.304 65.7847Z" fill="#5F97D8"/>
<path d="M252.923 309.708C252.36 309.708 251.84 309.612 251.519 309.335C251.268 309.109 251.155 308.797 251.199 308.407C251.233 308.112 251.389 307.981 251.519 307.912C252.342 307.496 254.664 308.953 254.924 309.127C254.985 309.161 255.011 309.231 254.994 309.3C254.976 309.369 254.924 309.422 254.855 309.439C254.335 309.56 253.599 309.708 252.914 309.708H252.923ZM251.9 308.181C251.805 308.181 251.736 308.198 251.675 308.224C251.623 308.25 251.571 308.294 251.554 308.433C251.519 308.71 251.588 308.918 251.762 309.066C252.152 309.404 253.105 309.448 254.37 309.196C253.564 308.71 252.464 308.181 251.9 308.181Z" fill="#3498DB"/>
<path d="M254.82 309.456C254.82 309.456 254.76 309.456 254.742 309.439C253.997 309.022 252.602 307.409 252.801 306.585C252.836 306.437 252.957 306.177 253.382 306.125C253.659 306.09 253.902 306.168 254.119 306.35C254.942 307.053 255.02 309.179 255.02 309.274C255.02 309.335 254.985 309.396 254.933 309.43C254.907 309.448 254.872 309.456 254.838 309.456H254.82ZM253.477 306.463C253.477 306.463 253.425 306.463 253.399 306.463C253.174 306.489 253.148 306.593 253.139 306.637C253.027 307.123 253.902 308.346 254.638 308.918C254.578 308.294 254.404 307.053 253.876 306.602C253.755 306.498 253.625 306.446 253.486 306.446L253.477 306.463Z" fill="#3498DB"/>
<path d="M215.422 309.717C214.694 309.717 214.018 309.604 213.654 309.265C213.42 309.048 213.325 308.762 213.368 308.415C213.394 308.207 213.498 308.051 213.68 307.955C214.599 307.452 217.493 308.962 217.813 309.135C217.874 309.17 217.909 309.239 217.9 309.317C217.883 309.387 217.831 309.448 217.753 309.465C217.12 309.586 216.236 309.725 215.422 309.725V309.717ZM214.157 308.19C214.018 308.19 213.906 308.207 213.828 308.25C213.758 308.294 213.724 308.346 213.706 308.441C213.68 308.675 213.741 308.858 213.888 309.005C214.321 309.404 215.535 309.474 217.172 309.205C216.176 308.719 214.85 308.19 214.148 308.19H214.157Z" fill="#3498DB"/>
<path d="M217.709 309.456C217.709 309.456 217.657 309.456 217.64 309.439C216.774 309.04 215.084 307.444 215.257 306.611C215.301 306.411 215.448 306.168 215.933 306.125C216.288 306.082 216.609 306.186 216.886 306.42C217.787 307.192 217.891 309.179 217.891 309.265C217.891 309.326 217.865 309.387 217.813 309.422C217.779 309.448 217.744 309.456 217.709 309.456ZM216.054 306.463C216.054 306.463 215.985 306.463 215.95 306.463C215.638 306.498 215.613 306.619 215.604 306.663C215.5 307.166 216.635 308.415 217.519 308.962C217.449 308.38 217.25 307.192 216.652 306.689C216.47 306.533 216.28 306.463 216.054 306.463Z" fill="#3498DB"/>
<path d="M282.941 145.484L238.65 151.267C236.709 151.52 235.341 153.301 235.594 155.244L239.365 184.2C239.618 186.143 241.397 187.513 243.338 187.259L287.629 181.476C289.57 181.223 290.938 179.442 290.685 177.499L286.914 148.543C286.66 146.6 284.882 145.23 282.941 145.484Z" fill="#263238"/>
<path opacity="0.3" d="M282.941 145.484L238.65 151.267C236.709 151.52 235.341 153.301 235.594 155.244L239.365 184.2C239.618 186.143 241.397 187.513 243.338 187.259L287.629 181.476C289.57 181.223 290.938 179.442 290.685 177.499L286.914 148.543C286.66 146.6 284.882 145.23 282.941 145.484Z" fill="black"/>
<path d="M258.711 155.053C257.974 155.053 257.264 154.811 256.666 154.351C255.955 153.796 255.496 153.006 255.375 152.113L254.586 146.092C254.344 144.253 255.652 142.552 257.489 142.309L267.497 140.999C268.389 140.887 269.273 141.121 269.984 141.676C270.694 142.231 271.153 143.021 271.275 143.914L272.063 149.935C272.306 151.774 270.997 153.475 269.16 153.717L259.153 155.027C259.005 155.045 258.858 155.053 258.711 155.053ZM267.939 142.943C267.878 142.943 267.817 142.943 267.757 142.951L257.749 144.261C256.978 144.365 256.432 145.077 256.536 145.849L257.324 151.87C257.376 152.243 257.567 152.572 257.862 152.807C258.165 153.041 258.529 153.136 258.901 153.093L268.909 151.783C269.68 151.679 270.226 150.976 270.122 150.195L269.334 144.175C269.282 143.802 269.091 143.472 268.797 143.238C268.545 143.047 268.242 142.943 267.939 142.943Z" fill="#263238"/>
<path d="M287.158 144.926L242.866 150.709C240.925 150.962 239.557 152.743 239.81 154.686L243.582 183.642C243.835 185.585 245.613 186.955 247.554 186.702L291.846 180.918C293.787 180.665 295.155 178.884 294.902 176.941L291.13 147.985C290.877 146.042 289.099 144.672 287.158 144.926Z" fill="#263238"/>
<path d="M261.163 137.139L258.33 142.656L266.622 143.038C266.622 143.038 268.753 139.247 265.547 135.595L261.163 137.139Z" fill="#D8A3A3"/>
<path d="M261.501 146.916L266.431 146.239L266.622 143.038L258.33 142.656L258.46 144.452C258.572 145.996 259.967 147.133 261.501 146.916Z" fill="#D8A3A3"/>
<path d="M255.358 104.884C255.228 105.57 256.146 108.068 256.822 109.048C257.498 110.029 268.675 110.87 270.114 108.667C271.552 106.463 271.613 102.542 270.928 101.241C270.252 99.9306 255.626 103.444 255.358 104.884Z" fill="#3965A1"/>
<path d="M92.0798 77.8173C90.6848 79.6392 89.1685 81.6432 87.7735 83.6124C86.3785 85.6078 84.9748 87.5944 83.6751 89.6244C81.0497 93.6584 78.6149 97.8139 76.9079 101.952C76.7 102.464 76.492 102.976 76.3187 103.488C76.2234 103.748 76.1368 103.999 76.0675 104.242L75.9461 104.615L75.8855 104.798L75.8682 104.85C75.7469 105.101 75.6862 105.951 75.7728 106.88C75.9635 108.797 76.5873 111.061 77.3065 113.291C78.7882 117.767 80.7464 122.4 82.7219 126.885L78.2856 129.696C74.9844 125.566 72.125 121.281 69.6989 116.44C68.5118 113.993 67.4114 111.477 66.7269 108.415C66.4063 106.862 66.155 105.153 66.5189 102.915L66.5883 102.499L66.6489 102.221L66.7789 101.683C66.8655 101.319 66.9522 100.963 67.0562 100.625C67.2468 99.922 67.4547 99.2453 67.68 98.5686C69.4909 93.216 72.0124 88.5053 74.7331 83.9855C76.1194 81.7386 77.5405 79.5351 79.0654 77.4096C80.6078 75.2668 82.0981 73.2194 83.8657 71.1027L92.0712 77.8087L92.0798 77.8173Z" fill="#263238"/>
<path d="M81.5349 125.289L86.0925 127.709L80.8504 133.86C80.8504 133.86 77.5751 131.639 77.4278 128.255L81.5349 125.289Z" fill="#FFC3BD"/>
<path d="M92.2358 131.5L86.6211 135.968L80.859 133.86L86.1012 127.709L92.2358 131.5Z" fill="#FFC3BD"/>
<path d="M160.358 112.119L165.747 114.904L165.271 116.847L160.912 121.194C160.912 121.194 157.784 118.773 157.862 115.381L160.358 112.111V112.119Z" fill="#FFC3BD"/>
<path d="M161.138 112.857L166.068 111.937L169.248 113.291L167.134 113.646L165.747 114.904L161.138 112.857Z" fill="#FFC3BD"/>
<path d="M171.145 121.81L165.782 122.964C165.219 123.085 164.638 123.016 164.127 122.764L160.912 121.202L165.271 116.856L168.139 115.963L171.726 120.083C172.263 120.699 171.942 121.654 171.145 121.827V121.81Z" fill="#FFC3BD"/>
<path d="M111.827 42.6391C111.948 43.2203 112.347 43.628 112.728 43.55C113.109 43.4719 113.317 42.934 113.204 42.3528C113.092 41.7715 112.684 41.3638 112.303 41.4419C111.922 41.5199 111.714 42.0578 111.827 42.6391Z" fill="#263238"/>
<path d="M112.295 43.6454C112.295 43.6454 114.296 46.7338 116.081 48.0611C115.249 49.2323 113.412 49.1455 113.412 49.1455L112.295 43.6454Z" fill="#FF5652"/>
<path d="M109.037 39.8456C108.95 39.8456 108.863 39.8109 108.803 39.7502C108.664 39.62 108.655 39.3945 108.785 39.2557C110.094 37.8416 111.679 38.0932 111.749 38.1019C111.939 38.1366 112.069 38.3101 112.035 38.5009C112 38.6918 111.818 38.8132 111.636 38.7872C111.584 38.7872 110.345 38.5964 109.297 39.7242C109.227 39.8022 109.132 39.8369 109.037 39.8369V39.8456Z" fill="#263238"/>
<path d="M96.0916 52.9279C97.0967 58.0464 97.7032 65.1428 94.1247 68.5521C94.1247 68.5521 95.5197 73.7486 105.025 73.7486C115.475 73.7486 110.05 69.1941 110.05 69.1941C105.709 67.8408 105.744 62.8959 106.741 58.9139L96.1003 52.9279H96.0916Z" fill="#FFC3BD"/>
<path d="M92.5824 72.0483C91.7332 70.6776 92.0105 66.5221 93.0416 65.8455C94.7139 64.7524 101.576 64.8825 110.674 67.5371C109.444 71.5104 111.454 73.7486 111.454 73.7486L92.5824 72.0483Z" fill="#3498DB"/>
<path opacity="0.2" d="M84.9921 79.4136C81.7428 82.6148 80.7984 89.1993 81.1536 93.6845C81.9595 92.3224 82.7999 90.9604 83.6751 89.6331C84.9748 87.5944 86.3698 85.6078 87.7735 83.6211C88.1634 83.0746 88.5706 82.5194 88.9692 81.9641C89.0472 81.6085 89.1252 81.2528 89.1858 80.9058L84.9834 79.431L84.9921 79.4136Z" fill="black"/>
<path d="M61.9786 308.138C62.6805 308.294 63.3823 308.328 63.7202 308.042C63.8589 307.921 64.0062 307.686 63.8762 307.27C63.8069 307.053 63.6683 306.888 63.4516 306.784C62.5072 306.333 60.341 307.218 60.2457 307.253C60.185 307.279 60.1417 307.339 60.1417 307.4C60.1417 307.47 60.1764 307.522 60.237 307.556C60.5663 307.712 61.2681 307.981 61.9786 308.138ZM63.1137 307.018C63.183 307.036 63.2523 307.053 63.3043 307.079C63.4343 307.14 63.521 307.235 63.5556 307.365C63.6423 307.66 63.5383 307.756 63.495 307.791C63.1224 308.112 61.7274 307.817 60.7396 307.418C61.4068 307.183 62.4812 306.88 63.1051 307.018H63.1137Z" fill="#3498DB"/>
<path d="M60.2803 307.565C60.2803 307.565 60.3323 307.565 60.3583 307.565C61.1468 307.331 62.8364 306.134 62.8624 305.335C62.8624 305.188 62.8191 304.928 62.4379 304.798C62.1952 304.711 61.944 304.728 61.7014 304.858C60.7656 305.335 60.1764 307.27 60.1504 307.357C60.133 307.418 60.1504 307.478 60.1937 307.522C60.2197 307.548 60.2457 307.556 60.2803 307.565ZM62.2559 305.093C62.2559 305.093 62.3079 305.101 62.3252 305.11C62.5332 305.179 62.5245 305.283 62.5245 305.327C62.5158 305.795 61.3981 306.741 60.575 307.123C60.7829 306.567 61.2421 305.457 61.8487 305.153C61.9873 305.084 62.1173 305.067 62.2472 305.093H62.2559Z" fill="#3498DB"/>
<path d="M113.577 309.309C114.478 309.309 115.336 309.187 115.631 308.78C115.734 308.641 115.812 308.398 115.613 308.06C115.501 307.869 115.327 307.739 115.085 307.669C113.924 307.348 111.48 308.745 111.376 308.806C111.315 308.84 111.281 308.91 111.298 308.979C111.307 309.049 111.359 309.101 111.428 309.118C111.87 309.205 112.737 309.317 113.568 309.317L113.577 309.309ZM114.686 307.955C114.799 307.955 114.911 307.964 115.007 307.99C115.163 308.033 115.267 308.112 115.327 308.224C115.449 308.433 115.405 308.528 115.362 308.589C115.033 309.04 113.274 309.049 111.974 308.866C112.624 308.537 113.872 307.955 114.686 307.955Z" fill="#3498DB"/>
<path d="M111.463 309.118C111.463 309.118 111.506 309.118 111.532 309.101C112.373 308.719 114.045 307.209 113.915 306.42C113.889 306.238 113.75 306.003 113.3 305.96C112.962 305.925 112.65 306.021 112.381 306.246C111.489 306.975 111.307 308.866 111.298 308.944C111.298 309.005 111.315 309.057 111.367 309.092C111.393 309.109 111.428 309.127 111.463 309.127V309.118ZM113.17 306.281C113.17 306.281 113.239 306.281 113.265 306.281C113.56 306.307 113.586 306.429 113.586 306.463C113.664 306.94 112.529 308.129 111.662 308.641C111.749 308.094 112 306.966 112.581 306.481C112.754 306.333 112.944 306.264 113.152 306.264L113.17 306.281Z" fill="#3498DB"/>
<path d="M103.786 308.953H110.77L111.463 292.748H104.479L103.786 308.953Z" fill="#FFC3BD"/>
<path d="M52.6121 305.96L59.3532 307.391L65.4705 291.889L58.7294 290.457L52.6121 305.96Z" fill="#FFC3BD"/>
<path d="M59.9771 306.507L52.3002 304.841C52.0229 304.78 51.7369 304.919 51.6156 305.179L48.9556 310.966C48.6783 311.564 49.0422 312.267 49.6921 312.397C52.3781 312.935 53.7125 313.057 57.0917 313.785C59.1713 314.236 63.8502 315.381 66.7182 315.997C69.5256 316.605 70.574 313.863 69.4563 313.351C64.4394 311.061 62.3512 309.04 60.9909 307.157C60.7482 306.819 60.3843 306.585 59.9771 306.498V306.507Z" fill="#263238"/>
<path d="M110.726 308.138H103.093C102.807 308.138 102.555 308.337 102.495 308.615L101.117 314.835C100.97 315.477 101.464 316.093 102.122 316.075C104.878 316.032 108.855 315.867 112.312 315.867C116.358 315.867 117.788 316.084 122.536 316.084C125.404 316.084 126.201 313.178 124.997 312.918C119.53 311.72 117.13 311.59 112.407 308.675C111.896 308.354 111.324 308.129 110.726 308.129V308.138Z" fill="#263238"/>
<path opacity="0.2" d="M111.463 292.748L111.108 301.102H104.115L104.47 292.748H111.463Z" fill="black"/>
<path opacity="0.2" d="M58.7294 290.457L65.4705 291.889L62.3165 299.879L55.5667 298.447L58.7294 290.457Z" fill="black"/>
<path d="M108.785 130.971C108.785 130.971 100.857 184.445 96.4988 204.477C91.7332 226.416 66.1637 298.994 66.1637 298.994L53.6519 296.278C53.6519 296.278 71.5271 237.13 75.5302 206.463C78.6062 182.91 84.6628 130.971 84.6628 130.971H108.785Z" fill="#263238"/>
<path opacity="0.1" d="M108.785 130.971C108.785 130.971 100.857 184.445 96.4988 204.477C91.7332 226.416 66.1637 298.994 66.1637 298.994L53.6519 296.278C53.6519 296.278 71.5271 237.13 75.5302 206.463C78.6062 182.91 84.6628 130.971 84.6628 130.971H108.785Z" fill="white"/>
<path d="M69.1617 294.812C69.2137 294.821 66.8309 299.341 66.8309 299.341L52.7594 296.287L53.9465 292.054L69.1704 294.812H69.1617Z" fill="#263238"/>
<path opacity="0.3" d="M103.769 150.022C94.6013 151.818 95.5717 186.059 96.6721 203.67C99.3149 191.221 103.188 167.268 105.831 150.265C105.224 149.961 104.54 149.866 103.769 150.013V150.022Z" fill="black"/>
<path d="M122.042 130.971C122.042 130.971 123.004 183.283 122.242 204.624C121.453 226.815 113.707 299.488 113.707 299.488H101.871C101.871 299.488 101.438 228.117 100.909 206.316C100.337 182.554 97.4693 130.971 97.4693 130.971H122.042Z" fill="#263238"/>
<path opacity="0.1" d="M122.042 130.971C122.042 130.971 123.004 183.283 122.242 204.624C121.453 226.815 113.707 299.488 113.707 299.488H101.871C101.871 299.488 101.438 228.117 100.909 206.316C100.337 182.554 97.4693 130.971 97.4693 130.971H122.042Z" fill="white"/>
<path d="M115.986 294.76C116.038 294.76 115.319 299.679 115.319 299.679H100.918L100.528 295.289L115.986 294.76Z" fill="#263238"/>
<path d="M122.996 77.1494C124.425 84.7055 127.077 105.847 122.926 136.592L82.488 135.968C82.2454 130.606 86.5171 101.449 82.5747 75.5791C82.1068 72.4907 84.2729 69.6192 87.3662 69.2028C89.4111 68.9252 91.7939 68.6736 94.1247 68.5608C98.899 68.3266 105.813 68.1791 110.016 68.5608C111.766 68.717 113.49 68.9772 115.024 69.2462C119.062 69.9662 122.242 73.124 123.004 77.158L122.996 77.1494Z" fill="#263238"/>
<path opacity="0.2" d="M124.105 84.6622L117.294 86.3538C116.774 92.7215 120.977 99.9307 125.162 105.439C125.188 96.8509 124.694 89.85 124.105 84.6622Z" fill="black"/>
<path d="M121.306 73.74C122.458 75.8134 123.715 78.0603 124.988 80.1857C126.271 82.3285 127.57 84.4626 128.922 86.536C131.608 90.6828 134.476 94.7255 137.604 98.1002C137.994 98.5079 138.393 98.9243 138.791 99.2974L139.086 99.5923L139.311 99.8005C139.441 99.9393 139.666 100.095 139.84 100.252C140.628 100.868 141.599 101.536 142.604 102.169C144.64 103.427 146.815 104.659 149.033 105.847C153.469 108.233 158.062 110.575 162.593 112.944L160.791 117.88C155.653 116.639 150.662 115.13 145.68 113.282C143.193 112.345 140.715 111.347 138.219 110.124C136.963 109.5 135.707 108.858 134.39 107.99C134.052 107.747 133.731 107.556 133.367 107.279L132.839 106.88L132.414 106.524C131.842 106.055 131.305 105.57 130.768 105.084C128.654 103.132 126.799 101.058 125.049 98.9417C123.299 96.8336 121.696 94.6474 120.162 92.4439C118.637 90.2317 117.181 87.9935 115.812 85.6945C114.443 83.3782 113.135 81.14 111.887 78.6415L121.297 73.7747L121.306 73.74Z" fill="#263238"/>
<path d="M92.1751 45.3544C94.064 52.4161 94.8092 56.6496 99.1676 59.5819C105.718 63.9976 113.863 58.9312 114.123 51.4445C114.357 44.7038 111.22 34.2934 103.656 32.8707C96.1956 31.4653 90.2862 38.2927 92.1838 45.3544H92.1751Z" fill="#FFC3BD"/>
<path d="M106.827 45.4412C108.499 42.9687 109.141 39.1689 107.971 37.3385C109.071 37.7982 117.008 38.3361 113.898 32.6885C110.787 27.0322 104.557 25.4793 99.1242 27.0322C100.45 27.4139 101.767 27.7956 101.767 27.7956C101.767 27.7956 94.3326 27.2664 90.7281 30.2681C91.8285 30.3288 92.7817 30.3028 92.7817 30.3028C92.7817 30.3028 84.8274 34.0245 88.25 36.8787C82.6699 41.1382 86.4478 47.0374 95.6497 55.8342C97.2526 57.2829 101.784 56.7537 102.789 55.8862C102.2 52.0517 105.883 46.8466 106.836 45.4412H106.827Z" fill="#263238"/>
<path d="M107.754 40.6264C109.409 41.8236 111.437 45.3805 112.39 47.1502C113.343 48.92 114.331 48.6944 114.799 49.3971C115.275 50.0998 117.233 61.985 115.137 63.8849C113.048 65.7847 106.758 62.7831 105.943 60.5969C105.129 58.4107 106.628 53.0494 107.035 51.8262C107.442 50.603 107.39 47.5493 106.663 45.4759C105.943 43.4025 107.746 40.6264 107.746 40.6264H107.754Z" fill="#263238"/>
<path d="M104.054 45.7708C104.609 47.6013 105.822 49.2756 107.217 49.9003C109.132 50.7678 109.366 48.5382 108.993 46.3955C108.655 44.4695 108.11 42.9514 106.576 42.1793C104.782 41.2684 103.422 43.6714 104.054 45.7708Z" fill="#FFC3BD"/>
</g>
<defs>
<clipPath id="clip0_140_731">
<rect width="336" height="326" fill="white"/>
</clipPath>
</defs>
</svg>
